<svg width="23" height="30" viewBox="0 0 23 30" fill="none" xmlns="http://www.w3.org/2000/svg">
<path d="M11.2394 6.32052C10.9944 6.32052 10.7959 6.12197 10.7959 5.87706C10.7959 5.63214 10.9944 5.43359 11.2394 5.43359" stroke="white" stroke-width="2" stroke-linecap="round" stroke-linejoin="round"/>
<path d="M11.2393 6.32052C11.4842 6.32052 11.6827 6.12197 11.6827 5.87706C11.6827 5.63214 11.4842 5.43359 11.2393 5.43359" stroke="white" stroke-width="2" stroke-linecap="round" stroke-linejoin="round"/>
<path d="M19.0611 1H3.25763C2.01079 1 1 1.93302 1 3.08397V26.0076C1 27.1586 2.01079 28.0916 3.25763 28.0916H19.0611C20.308 28.0916 21.3187 27.1586 21.3187 26.0076V3.08397C21.3187 1.93302 20.308 1 19.0611 1Z" stroke="white" stroke-width="2" stroke-linecap="round" stroke-linejoin="round"/>
</svg>
